<?xml version="1.0" standalone="no"?>
<!DOCTYPE svg PUBLIC "-//W3C//DTD SVG 20010904//EN"
 "http://www.w3.org/TR/2001/REC-SVG-20010904/DTD/svg10.dtd">
<svg version="1.0" xmlns="http://www.w3.org/2000/svg"
 width="1280.000000pt" height="1278.000000pt" viewBox="0 0 1280.000000 1278.000000"
 preserveAspectRatio="xMidYMid meet">
<metadata>
Created by potrace 1.15, written by Peter Selinger 2001-2017
</metadata>
<g transform="translate(0.000000,1278.000000) scale(0.100000,-0.100000)"
fill="#000000" stroke="none">
<path d="M6310 12774 c-14 -2 -65 -9 -115 -15 -312 -37 -581 -157 -773 -343
-185 -179 -279 -396 -289 -673 -7 -171 7 -290 52 -468 75 -291 193 -506 380
-690 134 -132 268 -211 437 -257 111 -31 341 -33 433 -5 103 32 197 81 288
151 49 37 91 66 93 63 6 -5 -33 -388 -47 -457 -59 -308 -183 -475 -338 -457
-156 18 -257 163 -296 422 l-11 80 -77 -2 c-73 -2 -390 -44 -471 -62 -21 -5
-42 -13 -46 -18 -10 -10 27 -155 77 -306 44 -134 165 -383 241 -497 67 -101
196 -232 274 -278 31 -18 89 -45 130 -60 65 -24 88 -27 203 -27 111 0 139 3
190 23 117 44 224 132 317 263 228 320 498 993 663 1649 219 873 129 1399
-293 1723 -131 101 -284 164 -512 212 -100 21 -161 27 -305 30 -99 2 -191 2
-205 -1z m331 -773 c111 -42 180 -114 222 -229 25 -71 35 -276 18 -379 -49
-286 -207 -435 -448 -421 -185 11 -322 135 -383 348 -30 105 -38 290 -16 384
20 85 68 177 113 216 40 36 138 86 191 100 65 16 240 6 303 -19z"/>
<path d="M3697 12126 c-280 -144 -778 -426 -836 -473 l-23 -19 139 -209 c175
-263 237 -368 328 -559 129 -269 236 -547 457 -1191 128 -373 246 -701 351
-974 61 -157 82 -201 114 -233 86 -90 316 -298 329 -298 8 0 69 42 137 93 242
186 491 347 707 460 80 42 153 82 162 89 16 12 7 47 -121 458 -122 397 -139
445 -157 442 -42 -7 -323 -133 -564 -254 -140 -70 -256 -125 -258 -123 -6 6
-100 629 -127 840 -35 271 -109 777 -141 955 -58 328 -154 702 -241 933 -49
131 -58 147 -80 147 -8 0 -87 -38 -176 -84z"/>
<path d="M8975 11993 c-84 -11 -206 -47 -281 -82 -378 -178 -598 -520 -700
-1091 -24 -134 -24 -448 0 -585 33 -184 93 -313 201 -432 141 -157 334 -232
593 -233 50 0 92 -4 92 -8 0 -11 -338 -392 -347 -392 -3 0 -76 44 -162 99
-176 111 -465 278 -587 339 l-82 41 -22 -52 c-59 -141 -320 -803 -320 -813 0
-7 55 -45 123 -85 235 -139 454 -289 664 -456 51 -40 96 -73 99 -73 15 0 198
162 640 565 120 110 352 320 514 466 162 147 324 293 359 325 l63 59 -68 95
c-81 113 -270 360 -316 412 l-33 37 -70 -25 c-56 -21 -90 -26 -170 -27 -96 -2
-103 0 -169 33 -142 71 -223 189 -233 339 -8 110 16 210 82 347 71 146 170
255 280 310 72 36 73 36 187 32 105 -3 119 -6 180 -36 94 -46 196 -144 244
-234 38 -72 39 -74 38 -183 -1 -122 -14 -163 -88 -279 -20 -32 -34 -61 -31
-66 6 -9 393 -375 513 -485 l65 -59 79 83 c259 273 367 582 313 893 -28 160
-102 336 -212 500 -92 139 -323 360 -500 479 -156 105 -394 203 -567 234 -82
14 -293 19 -371 8z"/>
<path d="M1602 10009 c-113 -13 -189 -36 -298 -89 -289 -140 -541 -420 -729
-812 -204 -426 -238 -905 -85 -1213 134 -271 383 -436 740 -491 271 -41 507 9
778 167 l117 69 20 -24 c11 -13 40 -51 64 -85 150 -209 389 -328 781 -388 160
-24 477 -24 615 1 273 49 430 138 501 282 54 110 43 314 -26 488 -90 223 -215
403 -421 601 -131 126 -217 190 -339 254 -166 86 -232 100 -482 101 l-118 0 0
49 c0 73 -38 286 -67 371 -74 224 -231 417 -464 570 -188 123 -385 174 -587
149z m130 -979 c154 -47 299 -183 350 -328 58 -165 -35 -368 -210 -454 -202
-100 -524 9 -626 210 -23 45 -26 63 -26 156 0 103 0 105 44 192 60 119 101
165 188 208 61 31 80 36 143 36 44 0 98 -8 137 -20z m1322 -795 c150 -53 319
-182 366 -281 49 -100 33 -191 -44 -262 -59 -54 -99 -66 -215 -60 -215 12
-444 150 -482 292 -16 60 -5 139 29 199 71 126 194 166 346 112z"/>
<path d="M11585 9907 c-44 -30 -183 -127 -310 -215 -126 -89 -234 -160 -240
-159 -5 2 -41 44 -78 93 -118 153 -198 245 -212 242 -8 -2 -141 -109 -295
-238 -155 -129 -289 -241 -298 -247 -22 -17 -13 -33 107 -193 55 -74 97 -137
93 -141 -17 -16 -1289 -917 -1474 -1044 -32 -22 -58 -42 -58 -45 0 -13 86
-144 101 -153 12 -8 55 4 170 45 297 107 561 168 849 197 99 9 137 24 534 210
142 67 262 121 268 121 12 0 44 -74 121 -282 82 -220 137 -384 137 -410 0 -14
-5 -18 -17 -14 -185 58 -350 95 -543 122 -180 25 -627 25 -800 1 -237 -34
-489 -90 -650 -143 -92 -31 -330 -124 -330 -129 0 -15 134 -323 145 -334 13
-13 40 -11 217 18 274 43 413 59 653 71 438 24 886 -25 1306 -141 l147 -41
314 46 c451 66 488 73 488 99 0 29 -99 428 -160 642 -28 99 -100 327 -160 507
-61 179 -110 331 -110 336 0 5 151 82 336 173 184 90 338 167 340 171 3 4 -14
44 -36 89 -81 160 -404 708 -458 777 l-18 23 -79 -54z"/>
<path d="M885 6979 c-156 -20 -328 -86 -450 -173 -138 -99 -267 -269 -340
-448 -99 -244 -123 -613 -59 -928 35 -172 133 -418 214 -536 93 -135 263 -274
406 -332 356 -146 772 -118 1402 94 863 289 1610 727 1775 1041 113 216 81
489 -83 695 -212 265 -707 464 -1268 510 -318 26 -567 -35 -770 -187 -256
-192 -368 -601 -256 -937 34 -104 89 -185 195 -290 48 -48 85 -89 81 -92 -7
-4 -167 -34 -302 -57 -100 -17 -272 -17 -340 0 -148 36 -265 131 -311 252 -20
54 -24 81 -23 169 1 120 14 166 69 241 74 99 170 149 334 171 l87 12 13 360
c6 199 15 377 18 397 5 34 3 36 -27 43 -45 9 -280 5 -365 -5z m2005 -775 c115
-34 198 -93 236 -167 10 -17 19 -64 22 -103 5 -86 -13 -128 -85 -195 -126
-118 -430 -203 -658 -184 -129 11 -211 60 -273 165 -23 38 -27 59 -30 140 -4
91 -3 99 26 156 57 113 167 178 347 208 68 11 360 -3 415 -20z"/>
<path d="M11606 6875 c-223 -37 -425 -127 -583 -262 -62 -53 -150 -167 -188
-243 l-28 -55 -21 29 c-182 256 -553 364 -986 290 -272 -47 -521 -173 -706
-358 -123 -124 -167 -212 -190 -377 -9 -67 11 -154 55 -244 116 -234 443 -495
796 -635 104 -41 108 -41 134 28 26 66 132 404 128 407 -1 1 -32 12 -68 24
-121 40 -232 119 -270 193 -22 44 -25 115 -5 161 30 73 137 131 284 155 172
28 346 -9 441 -94 75 -68 81 -100 55 -310 -8 -61 -49 -47 326 -114 157 -27
295 -52 307 -55 27 -6 26 -9 57 177 32 183 45 216 112 277 68 62 123 82 250
88 222 12 410 -72 483 -216 57 -111 48 -339 -19 -488 -34 -75 -111 -155 -178
-186 -41 -19 -63 -22 -174 -21 l-128 0 -61 -190 c-33 -104 -87 -268 -119 -363
l-59 -173 37 -19 c63 -32 213 -79 307 -97 228 -42 479 16 656 151 127 99 280
287 357 440 62 125 143 387 168 545 21 136 29 432 15 563 -33 298 -144 542
-331 727 -135 133 -236 189 -418 231 -116 27 -318 33 -436 14z"/>
<path d="M8625 4897 c-75 -20 -143 -53 -203 -99 -100 -77 -208 -238 -243 -363
-23 -81 -17 -329 10 -440 28 -117 97 -290 175 -441 103 -198 264 -444 291
-444 24 0 455 361 455 381 0 6 -32 47 -71 92 -214 246 -264 439 -148 571 81
91 178 111 304 61 211 -84 312 -201 383 -441 66 -222 77 -356 92 -1044 17
-825 25 -916 99 -1119 43 -117 98 -216 208 -369 l94 -133 117 110 c132 123
487 481 669 673 238 251 590 668 834 988 196 256 389 529 389 550 0 20 -21 32
-507 284 -155 80 -287 146 -295 146 -7 0 -95 -123 -195 -272 -301 -455 -591
-850 -604 -826 -4 7 -9 166 -12 353 -4 244 -10 368 -21 440 -97 595 -332 913
-861 1166 -140 67 -255 109 -415 151 -104 27 -133 30 -305 34 -135 3 -204 0
-240 -9z"/>
<path d="M3300 4695 c-146 -80 -269 -147 -275 -149 -13 -5 28 -80 140 -256 51
-80 98 -155 104 -167 10 -20 -28 -50 -660 -523 -554 -414 -673 -499 -685 -489
-20 17 -212 304 -318 477 l-88 142 -52 -28 c-28 -16 -96 -53 -151 -82 -167
-89 -386 -210 -463 -257 l-73 -45 19 -33 c33 -55 199 -280 351 -475 391 -503
723 -874 1191 -1332 l275 -269 28 33 c28 33 413 544 457 607 l23 34 -64 61
c-35 33 -150 134 -254 223 -238 202 -233 197 -214 228 21 35 188 213 699 745
250 261 611 637 800 835 190 198 381 397 424 443 l80 83 -60 59 -59 60 -109
-11 c-267 -28 -574 48 -731 180 -32 28 -62 51 -65 51 -3 -1 -124 -66 -270
-145z"/>
<path d="M5410 3943 c-57 -9 -269 -124 -359 -193 -289 -224 -659 -651 -976
-1130 -281 -422 -436 -730 -522 -1033 -23 -82 -26 -114 -30 -298 -6 -238 4
-291 81 -455 89 -187 183 -295 361 -413 287 -189 513 -267 848 -292 238 -18
404 12 578 102 224 117 374 286 472 534 77 195 79 213 151 1215 64 882 62
1009 -24 1365 -53 223 -131 391 -225 488 -78 80 -237 130 -355 110z m-1 -751
c74 -54 96 -138 88 -332 -7 -165 -37 -339 -122 -716 -149 -656 -185 -784 -271
-961 -105 -220 -238 -314 -400 -284 -136 25 -254 112 -292 214 -69 182 -26
372 213 947 320 772 488 1071 640 1142 48 22 106 18 144 -10z"/>
<path d="M7351 3918 c-43 -22 -45 -26 -70 -113 -83 -283 -271 -512 -494 -602
-34 -14 -65 -28 -69 -31 -8 -8 47 -620 56 -630 4 -3 123 12 266 33 143 21 262
36 265 33 10 -10 365 -1584 365 -1620 0 -10 -11 -22 -24 -28 -30 -11 -328 -61
-543 -91 -89 -12 -167 -25 -174 -30 -9 -5 -3 -101 25 -421 21 -227 39 -415 41
-416 8 -9 396 75 690 150 486 122 973 280 1460 473 232 92 499 206 512 218 2
3 -65 119 -149 258 -223 368 -281 459 -292 459 -6 0 -145 -67 -308 -150 -164
-82 -308 -150 -321 -150 -20 0 -38 38 -169 353 -534 1280 -800 1910 -924 2195
-64 148 -66 149 -143 110z"/>
</g>
</svg>
